REM DIRINDEX 1\2\6,1\2\7,1\2\8,1\2\9,1\3\10,1\3\11,1\4\12,1\4\13,1\4\14,1\5\15,1\5\16,1\5\17
REM DIRNAME cjc029,folder01,folder02,folder03,folder04,folder05,folder06,folder07,folder08,folder09,folder10,folder11,folder12,folder13,folder14,folder15,folder16
TITLE ""
FILE "1400_2_sec03_0249_0265.mp3" MP3
  TRACK 01 AUDIO
    TITLE "0:"
    INDEX 01 00:00:00
  TRACK 02 AUDIO
    TITLE "13:cjc029_2072"
    INDEX 01 00:00:19
  TRACK 03 AUDIO
    TITLE "0:"
    INDEX 01 00:01:34
  TRACK 04 AUDIO
    TITLE "14:cjc029_2073"
    INDEX 01 00:01:40
  TRACK 05 AUDIO
    TITLE "0:"
    INDEX 01 00:03:55
  TRACK 06 AUDIO
    TITLE "13:cjc029_2074"
    INDEX 01 00:04:38
  TRACK 07 AUDIO
    TITLE "0:"
    INDEX 01 00:05:40
  TRACK 08 AUDIO
    TITLE "14:cjc029_2075"
    INDEX 01 00:05:48
  TRACK 09 AUDIO
    TITLE "0:"
    INDEX 01 00:11:40
  TRACK 10 AUDIO
    TITLE "13:cjc029_2076"
    INDEX 01 00:12:22
  TRACK 11 AUDIO
    TITLE "0:"
    INDEX 01 00:13:20
  TRACK 12 AUDIO
    TITLE "14:cjc029_2077"
    INDEX 01 00:13:24
  TRACK 13 AUDIO
    TITLE "0:"
    INDEX 01 00:19:44
  TRACK 14 AUDIO
    TITLE "13:cjc029_2078"
    INDEX 01 00:20:24
  TRACK 15 AUDIO
    TITLE "0:"
    INDEX 01 00:21:31
  TRACK 16 AUDIO
    TITLE "14:cjc029_2079"
    INDEX 01 00:21:37
  TRACK 17 AUDIO
    TITLE "0:"
    INDEX 01 00:24:53
  TRACK 18 AUDIO
    TITLE "13:cjc029_2080"
    INDEX 01 00:25:33
  TRACK 19 AUDIO
    TITLE "0:"
    INDEX 01 00:26:40
  TRACK 20 AUDIO
    TITLE "14:cjc029_2081"
    INDEX 01 00:26:44
  TRACK 21 AUDIO
    TITLE "0:"
    INDEX 01 00:30:08
  TRACK 22 AUDIO
    TITLE "13:cjc029_2082"
    INDEX 01 00:30:65
  TRACK 23 AUDIO
    TITLE "0:"
    INDEX 01 00:32:19
  TRACK 24 AUDIO
    TITLE "14:cjc029_2083"
    INDEX 01 00:32:21
  TRACK 25 AUDIO
    TITLE "0:"
    INDEX 01 00:35:64
  TRACK 26 AUDIO
    TITLE "13:cjc029_2084"
    INDEX 01 00:36:44
  TRACK 27 AUDIO
    TITLE "0:"
    INDEX 01 00:37:50
  TRACK 28 AUDIO
    TITLE "14:cjc029_2085"
    INDEX 01 00:37:54
  TRACK 29 AUDIO
    TITLE "0:"
    INDEX 01 00:38:67
  TRACK 30 AUDIO
    TITLE "13:cjc029_2086"
    INDEX 01 00:39:49
  TRACK 31 AUDIO
    TITLE "0:"
    INDEX 01 00:40:50
  TRACK 32 AUDIO
    TITLE "14:cjc029_2087"
    INDEX 01 00:40:52
  TRACK 33 AUDIO
    TITLE "0:"
    INDEX 01 00:41:71
  TRACK 34 AUDIO
    TITLE "13:cjc029_2088"
    INDEX 01 00:42:51
  TRACK 35 AUDIO
    TITLE "0:"
    INDEX 01 00:43:58
  TRACK 36 AUDIO
    TITLE "14:cjc029_2089"
    INDEX 01 00:43:64
  TRACK 37 AUDIO
    TITLE "0:"
    INDEX 01 00:47:42
  TRACK 38 AUDIO
    TITLE "13:cjc029_2090"
    INDEX 01 00:48:20
  TRACK 39 AUDIO
    TITLE "0:"
    INDEX 01 00:49:20
  TRACK 40 AUDIO
    TITLE "14:cjc029_2091"
    INDEX 01 00:49:27
  TRACK 41 AUDIO
    TITLE "0:"
    INDEX 01 00:53:04
  TRACK 42 AUDIO
    TITLE "13:cjc029_2092"
    INDEX 01 00:53:58
  TRACK 43 AUDIO
    TITLE "0:"
    INDEX 01 00:54:74
  TRACK 44 AUDIO
    TITLE "14:cjc029_2093"
    INDEX 01 00:55:03
  TRACK 45 AUDIO
    TITLE "0:"
    INDEX 01 00:57:35
  TRACK 46 AUDIO
    TITLE "13:cjc029_2094"
    INDEX 01 00:58:22
  TRACK 47 AUDIO
    TITLE "0:"
    INDEX 01 00:59:32
  TRACK 48 AUDIO
    TITLE "14:cjc029_2095"
    INDEX 01 00:59:36
  TRACK 49 AUDIO
    TITLE "0:"
    INDEX 01 01:01:46
  TRACK 50 AUDIO
    TITLE "13:cjc029_2096"
    INDEX 01 01:02:28
  TRACK 51 AUDIO
    TITLE "0:"
    INDEX 01 01:03:43
  TRACK 52 AUDIO
    TITLE "14:cjc029_2097"
    INDEX 01 01:03:49
  TRACK 53 AUDIO
    TITLE "0:"
    INDEX 01 01:06:14
  TRACK 54 AUDIO
    TITLE "13:cjc029_2098"
    INDEX 01 01:06:71
  TRACK 55 AUDIO
    TITLE "0:"
    INDEX 01 01:07:70
  TRACK 56 AUDIO
    TITLE "14:cjc029_2099"
    INDEX 01 01:08:03
  TRACK 57 AUDIO
    TITLE "0:"
    INDEX 01 01:10:37
  TRACK 58 AUDIO
    TITLE "13:cjc029_2100"
    INDEX 01 01:11:19
  TRACK 59 AUDIO
    TITLE "0:"
    INDEX 01 01:12:38
  TRACK 60 AUDIO
    TITLE "14:cjc029_2101"
    INDEX 01 01:12:42
  TRACK 61 AUDIO
    TITLE "0:"
    INDEX 01 01:14:02
  TRACK 62 AUDIO
    TITLE "13:cjc029_2102"
    INDEX 01 01:14:59
  TRACK 63 AUDIO
    TITLE "0:"
    INDEX 01 01:15:64
  TRACK 64 AUDIO
    TITLE "14:cjc029_2103"
    INDEX 01 01:15:72
  TRACK 65 AUDIO
    TITLE "0:"
    INDEX 01 01:19:62
  TRACK 66 AUDIO
    TITLE "13:cjc029_2104"
    INDEX 01 01:20:42
  TRACK 67 AUDIO
    TITLE "0:"
    INDEX 01 01:21:47
  TRACK 68 AUDIO
    TITLE "14:cjc029_2105"
    INDEX 01 01:21:51
  TRACK 69 AUDIO
    TITLE "0:"
    INDEX 01 01:23:62
